<svg version="1.1" xmlns="http://www.w3.org/2000/svg" xmlns:xlink="http://www.w3.org/1999/xlink" x="0px" y="0px" viewBox="0 0 300 100" style="enable-background:new 0 0 300 100;" xml:space="preserve">
	<style type="text/css">
		path,polygon{
			fill: #fff;
		}
	</style>
	<g id="d5logo">
		<path d="M178.8,30.4l-0.6,4.2h3.7l0.4-2.7h10.8l-0.4,2.7h9.3l0.4-2.7H213l-0.4,2.7h4.7l-0.8,5.4h-4.7l-1.3,9.2h-30.7l1.3-9.2h-3.7
			l-5.3,27.6L155,82.8l8.3-19.8l5.4-38.4h22.9l-4.4-3.7h12l0.9,3.7h18.9l-0.8,5.7H178.8z M196.9,72.9l-4.3-3l-5.1,3h-16.2l13.8-8
			l-9.1-6.3h15.6l1.8,1.4l4.8-2.8h-21.7l0.8-5.4h36.2l-0.9,6.4L200.9,65l11.8,8H196.9z M201.3,40.1h-9.3l-0.5,3.7h9.3L201.3,40.1z"/>
		<path d="M44,29.8l0.8,4.6H35l-0.7-4.6h-1.3l-5.4,1.9l-7.6,2.7l7-13.5h10.6l-1.7,3.2h12.1l-0.8,5.7H44z M26.8,73l-19,9.8l15.3-20.7
			H35L26.8,73z M52.3,71.2l-2-5.4h6.3l0.7-5.3h-8.7L46.8,73H35.7l1.8-12.6H18.8l2-14.5h18.6l0.6-4H21l0.8-5.5h47.5l-2.1,14.6H49.9
			l-0.6,4.2h19.5l-2.2,15.9H52.3z M38.8,51.1h-8.6l-0.6,4.2h8.6L38.8,51.1z M69.1,29.8l0.9,4.6h-9.8l-1.1-4.6h-0.4l-4.8,1.9l-7.8,2.7
			L52.2,21h10.3l-1.3,3.2h12.5l-1.4,5.7H69.1z M58,41.9h-6.8l-0.6,4h6.8L58,41.9z"/>
		<g>
			<polygon points="108.7,20 111.7,11.2 91.2,13 88.2,22.3 		"/>
			<path d="M85.7,34.3L85.7,34.3l2-12l0,0l2.9-9.3l-12,9.3l-4,19.6l-0.2,0.8c11.7,0,22,2.7,20.3,15.1C96.9,48.8,94.6,37.1,85.7,34.3z
				"/>
			<path d="M86.3,34.2c9,2.8,11.2,14.5,8.9,23.4c-2.4,17-25.3,21.4-30,22.2l0,2.9c7.3-0.1,18.9-2.7,27.4-8.5c7.5-4.9,12-11.3,13-18.5
				C107.9,39.4,99.8,34.3,86.3,34.2z"/>
		</g>
		<g>
			<polygon points="134.4,31.8 126.3,31.8 122.3,38.2 120.8,38.2 131.5,21 122.6,21 113.6,36.5 112.5,44.5 118.5,44.5 111.1,55.4 
				110.2,61.8 126.1,61.8 129.9,55.1 119.7,55.1 		"/>
			<polygon points="103.1,82.6 120.8,72.8 125.2,64.1 115.5,64.1 		"/>
			<path d="M165.3,30.2l0.8-5.8h-6.6l-0.3-3.6h-7.6c-0.1,0.2,1.8,3.3,1.8,3.6h-5.5l1.8-3.5h-7.6l-15.4,24.7l9.3-8.1l-6.9,45.2
				l8.8-9.7l0,0l2.4-6h0l1.3-9.4h5.1l-1.3,9.4h-3.8h-0.3l-2.4,6h19.2l2.3-6h-6.6l1.3-9.4h6.1l0.9-5.9h-6.1l1.2-8.4h6.1l0.9-5.8h-6.1
				l1-7.2H165.3z M147.5,51.7h-5.1l1.2-8.4h5.1L147.5,51.7z M149.5,37.5h-5.1l1-7.2h5.1L149.5,37.5z"/>
		</g>
		<g>
			<path d="M227.8,25.3h3.8c0.5,0,0.9,0,1.4,0.1s0.9,0.3,1.2,0.5c0.4,0.2,0.7,0.5,0.9,0.9c0.2,0.4,0.4,0.8,0.4,1.3
				c0,0.9-0.3,1.6-0.8,2.2c-0.5,0.6-1.2,1-2.1,1.2v0c0.7,0.1,1.3,0.4,1.8,0.9c0.5,0.5,0.7,1.1,0.7,1.9c0,0.7-0.1,1.2-0.4,1.8
				c-0.3,0.5-0.7,0.9-1.2,1.3s-1.1,0.6-1.8,0.8c-0.7,0.2-1.4,0.3-2.2,0.3h-3.9L227.8,25.3z M227.1,37.3h2.5c0.5,0,1-0.1,1.5-0.2
				c0.5-0.1,0.9-0.3,1.3-0.5c0.4-0.2,0.7-0.5,0.9-0.9s0.3-0.8,0.3-1.4c0-0.7-0.3-1.2-0.8-1.6c-0.5-0.4-1.2-0.6-2.2-0.6H228
				L227.1,37.3z M228.2,31h2.7c0.3,0,0.7,0,1.1-0.1c0.4-0.1,0.7-0.2,1-0.4s0.6-0.5,0.8-0.8c0.2-0.3,0.3-0.7,0.3-1.2
				c0-0.4-0.1-0.7-0.2-0.9c-0.1-0.3-0.3-0.5-0.6-0.6c-0.2-0.2-0.5-0.3-0.9-0.4c-0.3-0.1-0.7-0.1-1.1-0.1H229L228.2,31z"/>
			<path d="M240.8,38.4h-1.3l1-5.6l-3.3-7.4h1.6l2.6,6.4l5.2-6.4h1.6l-6.4,7.4L240.8,38.4z"/>
		</g>
		<g>
			<path d="M224.7,54.8h7l-0.2,1.2h-8.3l2.3-13.1h7.9l-0.2,1.2h-6.5l-0.8,4.5h6.2l-0.2,1.1h-6.2L224.7,54.8z"/>
			<path d="M235.2,56h-1.3l2.3-13.1h1.3L235.2,56z"/>
			<path d="M247,44.9c-0.2-0.3-0.6-0.6-1-0.9s-1-0.4-1.6-0.4c-0.4,0-0.8,0.1-1.1,0.2s-0.7,0.3-1,0.5c-0.3,0.2-0.6,0.5-0.7,0.8
				c-0.2,0.3-0.3,0.7-0.3,1.2c0,0.3,0.1,0.6,0.2,0.9c0.1,0.2,0.3,0.5,0.5,0.6s0.5,0.3,0.8,0.5c0.3,0.1,0.6,0.3,0.9,0.4
				c0.4,0.1,0.8,0.3,1.2,0.5c0.4,0.2,0.8,0.4,1.1,0.7c0.3,0.3,0.6,0.6,0.8,1c0.2,0.4,0.3,0.8,0.3,1.3c0,0.4-0.1,0.9-0.2,1.4
				s-0.4,0.9-0.8,1.3c-0.4,0.4-0.9,0.8-1.5,1c-0.6,0.3-1.3,0.4-2.2,0.4c-0.8,0-1.6-0.2-2.3-0.5c-0.7-0.3-1.3-0.8-1.7-1.5l1.2-0.8
				c0.2,0.4,0.6,0.8,1.1,1.1s1.1,0.5,1.8,0.5c0.4,0,0.9-0.1,1.3-0.2c0.4-0.1,0.8-0.3,1.1-0.6s0.5-0.5,0.7-0.9s0.3-0.7,0.3-1.1
				c0-0.4-0.1-0.7-0.2-1c-0.1-0.3-0.3-0.5-0.6-0.7s-0.5-0.4-0.9-0.5c-0.3-0.1-0.7-0.3-1-0.4s-0.7-0.3-1.1-0.5s-0.7-0.4-0.9-0.7
				s-0.5-0.6-0.7-0.9c-0.2-0.4-0.2-0.8-0.2-1.2c0-0.6,0.1-1.1,0.3-1.6c0.2-0.5,0.5-0.9,0.9-1.2c0.4-0.4,0.9-0.6,1.5-0.8
				c0.6-0.2,1.2-0.3,2-0.3c0.9,0,1.6,0.1,2.3,0.4s1.1,0.7,1.4,1.1L247,44.9z"/>
			<path d="M258.5,54.1L258.5,54.1l2-11.2h1.3L259.5,56h-1.6l-5.4-11.4h0l-2,11.4h-1.3l2.3-13.1h1.6L258.5,54.1z"/>
			<path d="M264.5,54.8h7l-0.2,1.2H263l2.3-13.1h7.9l-0.2,1.2h-6.5l-0.8,4.5h6.2l-0.2,1.1h-6.2L264.5,54.8z"/>
			<path d="M275,56h-1.3l2.3-13.1h1.3L275,56z"/>
			<path d="M285.3,53.7L285.3,53.7l6.4-10.8h2L291.3,56H290l2-11.3h0L285.3,56h-0.7l-2.7-11.3h0l-2,11.3h-1.3l2.3-13.1h2L285.3,53.7z
				"/>
		</g>
		<g>
			<path d="M222.9,74.5h-1.3l2.1-11.9h-4.4l0.2-1.2h10.1l-0.2,1.2H225L222.9,74.5z"/>
			<path d="M230.6,73.4h7l-0.2,1.2h-8.3l2.3-13.1h7.9l-0.2,1.2h-6.5l-0.8,4.5h6.2l-0.2,1.1h-6.2L230.6,73.4z"/>
			<path d="M241.1,74.5h-1.3l2.3-13.1h3.5c0.6,0,1.1,0.1,1.6,0.2s0.9,0.3,1.3,0.6c0.4,0.3,0.6,0.6,0.8,1c0.2,0.4,0.3,0.9,0.3,1.4
				c0,0.6-0.1,1.1-0.3,1.6c-0.2,0.4-0.5,0.8-0.8,1.1s-0.8,0.5-1.2,0.7c-0.5,0.2-1,0.3-1.5,0.3l2.9,6.2h-1.5l-2.7-6.1h-2.3L241.1,74.5
				z M242.4,67.3h2.3c0.4,0,0.9,0,1.3-0.1c0.4-0.1,0.8-0.2,1.2-0.4c0.3-0.2,0.6-0.4,0.8-0.8c0.2-0.3,0.3-0.8,0.3-1.3
				c0-0.7-0.3-1.2-0.8-1.6c-0.5-0.4-1.2-0.5-2.1-0.5h-2.2L242.4,67.3z"/>
			<path d="M252.2,74.5h-1.3l2.3-13.1h3.5c0.6,0,1.1,0.1,1.6,0.2s0.9,0.3,1.3,0.6c0.4,0.3,0.6,0.6,0.8,1c0.2,0.4,0.3,0.9,0.3,1.4
				c0,0.6-0.1,1.1-0.3,1.6c-0.2,0.4-0.5,0.8-0.8,1.1s-0.8,0.5-1.2,0.7c-0.5,0.2-1,0.3-1.5,0.3l2.9,6.2h-1.5l-2.7-6.1h-2.3L252.2,74.5
				z M253.5,67.3h2.3c0.4,0,0.9,0,1.3-0.1c0.4-0.1,0.8-0.2,1.2-0.4c0.3-0.2,0.6-0.4,0.8-0.8c0.2-0.3,0.3-0.8,0.3-1.3
				c0-0.7-0.3-1.2-0.8-1.6c-0.5-0.4-1.2-0.5-2.1-0.5h-2.2L253.5,67.3z"/>
			<path d="M265.8,74.5h-1.3l1-5.6l-3.3-7.4h1.6l2.6,6.4l5.2-6.4h1.6l-6.4,7.4L265.8,74.5z"/>
		</g>
		<polygon points="275,100 273.4,100 279.4,62.1 280.9,62.1 	"/>
		<polygon points="251.7,38.4 250.1,38.4 256.1,0.5 257.6,0.5 	"/>
	</g>
</svg>
